<?xml version="1.0" standalone="no"?>
<!DOCTYPE svg PUBLIC "-//W3C//DTD SVG 20010904//EN"
 "http://www.w3.org/TR/2001/REC-SVG-20010904/DTD/svg10.dtd">
<svg version="1.0" xmlns="http://www.w3.org/2000/svg"
 width="1080.000000pt" height="1080.000000pt" viewBox="0 0 1080.000000 1080.000000"
 preserveAspectRatio="xMidYMid meet">

<g transform="translate(0.000000,1080.000000) scale(0.100000,-0.100000)"
fill="#000000" stroke="none">
<path d="M5395 8946 c-104 -47 -112 -184 -14 -238 58 -33 137 -11 175 48 22
32 21 107 0 139 -35 53 -107 76 -161 51z"/>
<path d="M5431 8599 c-1 -3 -14 -93 -30 -200 -17 -106 -55 -349 -85 -539 -30
-190 -62 -397 -72 -460 -22 -148 -46 -212 -102 -272 -25 -26 -48 -48 -53 -48
-4 0 -60 133 -124 295 -107 270 -128 315 -141 303 -2 -3 -15 -145 -28 -317
-13 -171 -26 -314 -29 -317 -11 -11 -72 16 -122 54 -36 27 -118 128 -295 364
-135 180 -251 333 -257 340 -9 8 -16 9 -23 2 -7 -7 8 -73 44 -199 30 -105 100
-354 156 -555 56 -201 112 -399 125 -441 l22 -76 -459 -551 c-253 -304 -464
-552 -469 -552 -5 0 -8 3 -8 8 1 4 1 285 0 625 l-1 617 -475 0 -475 0 0 -1485
0 -1485 475 0 475 0 0 328 0 328 33 31 c58 54 477 393 487 393 5 0 50 -73 101
-163 112 -198 311 -548 431 -759 l90 -158 1288 0 c1087 0 1300 2 1371 15 346
60 592 269 674 571 34 128 29 341 -11 484 -32 115 -105 228 -195 307 -57 49
-185 116 -264 138 -69 20 -87 32 -59 40 309 100 467 308 481 635 6 154 -10
242 -66 355 -92 185 -250 316 -462 384 -113 37 -163 41 -512 41 -188 1 -348 4
-354 8 -9 6 -6 29 13 92 13 47 42 148 63 225 22 77 80 285 130 463 50 178 91
327 91 333 0 28 -35 1 -83 -63 -430 -581 -458 -616 -538 -665 -32 -20 -88 -40
-89 -32 -1 2 -11 145 -24 316 -12 172 -26 316 -29 320 -4 4 -11 2 -16 -3 -5
-5 -60 -137 -122 -294 -61 -157 -116 -289 -120 -295 -14 -14 -87 63 -114 120
-25 52 -44 165 -170 980 -47 308 -71 438 -74 414z m1411 -2605 c66 -47 98
-117 98 -216 0 -117 -36 -185 -122 -229 -35 -18 -63 -19 -393 -19 l-355 0 0
250 0 251 364 -3 364 -3 44 -31z m-1734 -941 l-3 -307 -223 358 -222 357 137
157 c75 86 164 188 197 227 34 38 72 82 86 98 l25 29 3 -306 c1 -168 1 -444 0
-613z m1778 -162 c51 -23 98 -80 114 -137 19 -67 9 -191 -20 -242 -26 -46 -79
-87 -131 -102 -19 -6 -194 -10 -406 -10 l-373 0 0 255 0 255 388 0 c355 0 390
-2 428 -19z"/>
<path d="M3954 8140 c-77 -50 -74 -184 6 -225 69 -35 151 -11 185 55 60 117
-80 241 -191 170z"/>
<path d="M6769 8137 c-65 -44 -75 -137 -21 -198 54 -61 164 -48 207 23 36 62
10 159 -50 186 -41 19 -98 14 -136 -11z"/>
<path d="M4780 7949 c-59 -24 -84 -82 -60 -140 17 -40 47 -59 93 -59 31 0 46
7 73 34 53 53 38 133 -31 162 -39 16 -41 16 -75 3z"/>
<path d="M6014 7930 c-32 -13 -64 -59 -64 -92 0 -92 100 -141 169 -82 89 75 3
218 -105 174z"/>
<path d="M2640 3615 l0 -35 2800 0 2800 0 0 35 0 35 -2800 0 -2800 0 0 -35z"/>
<path d="M2445 3224 c-73 -38 -106 -94 -106 -179 0 -58 21 -117 54 -154 69
-75 208 -66 264 18 26 39 29 57 9 64 -8 3 -23 -9 -37 -31 -61 -93 -187 -60
-219 58 -18 66 6 152 52 184 26 19 87 21 123 4 30 -14 31 -22 5 -48 -28 -28
-11 -60 31 -60 70 0 54 102 -22 140 -46 24 -113 26 -154 4z"/>
<path d="M5932 3219 c-132 -66 -131 -294 1 -358 99 -48 225 -3 239 84 5 29
-26 30 -42 0 -29 -54 -97 -72 -156 -42 -37 19 -74 91 -74 143 0 49 30 116 61
138 30 21 98 21 128 0 l22 -16 -20 -19 c-22 -21 -24 -28 -15 -53 7 -19 55 -21
72 -4 18 18 14 62 -9 92 -46 58 -130 73 -207 35z"/>
<path d="M2816 3088 c-30 -79 -61 -158 -67 -175 -8 -25 -17 -33 -36 -33 -18 0
-24 -5 -21 -17 3 -15 15 -18 78 -18 63 0 75 3 78 18 3 13 -3 17 -28 17 -28 0
-31 3 -25 23 21 68 26 72 98 74 73 3 87 -7 102 -69 6 -25 5 -28 -19 -28 -20 0
-26 -5 -26 -20 0 -20 5 -21 83 -18 65 2 82 6 82 18 0 8 -10 16 -21 18 -18 3
-33 33 -90 178 l-68 174 -32 0 c-32 0 -32 0 -88 -142z m109 9 c14 -37 25 -72
25 -77 0 -6 -25 -10 -55 -10 -30 0 -55 4 -55 8 0 7 27 91 45 141 8 19 11 14
40 -62z"/>
<path d="M3130 3155 c0 -72 1 -75 24 -75 19 0 23 5 24 28 1 98 -2 92 47 92
l45 0 0 -159 0 -160 -27 -3 c-17 -2 -28 -9 -28 -18 0 -12 17 -15 90 -15 77 0
90 2 93 18 3 13 -3 17 -27 17 l-31 0 0 160 0 160 45 0 45 0 0 -60 c0 -57 1
-60 25 -60 24 0 25 2 25 75 l0 75 -175 0 -175 0 0 -75z"/>
<path d="M3500 3215 c0 -9 9 -15 24 -15 14 0 28 -5 31 -10 4 -6 30 -86 59
-178 45 -146 55 -167 74 -170 27 -4 39 21 72 148 26 98 35 113 44 73 4 -15 21
-72 37 -125 24 -79 34 -98 49 -98 10 0 22 5 25 10 4 6 28 86 53 178 42 148 50
167 70 170 12 2 22 10 22 18 0 11 -16 14 -70 14 -56 0 -70 -3 -70 -15 0 -9 9
-15 25 -15 23 0 25 -3 18 -27 -47 -187 -61 -236 -67 -223 -3 8 -21 67 -39 130
-30 107 -35 115 -57 115 -23 0 -27 -9 -60 -122 -19 -67 -38 -124 -41 -128 -6
-5 -69 217 -69 243 0 7 11 12 25 12 16 0 25 6 25 15 0 12 -17 15 -90 15 -73 0
-90 -3 -90 -15z"/>
<path d="M4215 3133 c-20 -54 -51 -133 -67 -175 -26 -68 -33 -78 -55 -78 -18
0 -24 -5 -21 -17 3 -15 16 -18 81 -21 72 -3 77 -1 77 18 0 16 -6 20 -30 20
-35 0 -35 -2 -14 49 16 40 34 51 89 51 51 0 75 -11 90 -41 22 -42 19 -59 -11
-59 -19 0 -25 -4 -22 -17 3 -15 15 -18 83 -18 68 0 80 3 83 18 3 12 -3 17 -20
17 -21 0 -30 18 -91 175 l-69 175 -33 0 c-32 0 -33 -2 -70 -97z m93 -36 c32
-85 31 -87 -33 -87 -30 0 -55 4 -55 9 0 23 53 151 60 144 4 -4 16 -34 28 -66z"/>
<path d="M4510 3215 c0 -10 10 -15 30 -15 l30 0 0 -160 0 -160 -31 0 c-24 0
-30 -4 -27 -17 3 -16 19 -18 158 -18 l155 0 0 80 c0 73 -2 80 -20 80 -18 0
-20 -8 -23 -62 l-3 -63 -75 0 -75 0 3 158 3 157 28 3 c15 2 27 9 27 18 0 11
-19 14 -90 14 -73 0 -90 -3 -90 -15z"/>
<path d="M4840 3216 c0 -9 12 -16 33 -18 l32 -3 0 -155 0 -155 -33 -3 c-25 -3
-32 -8 -30 -20 3 -14 17 -17 88 -17 73 0 85 2 88 18 3 13 -3 17 -22 17 -25 0
-26 3 -26 53 0 41 5 58 20 72 12 11 24 15 29 9 23 -24 101 -124 101 -129 0 -3
-11 -5 -25 -5 -18 0 -25 -5 -25 -20 0 -20 5 -21 87 -18 74 3 88 6 91 21 3 12
-3 17 -20 17 -16 0 -41 21 -83 72 -99 118 -97 100 -19 179 52 52 75 69 96 69
18 0 28 5 28 15 0 12 -17 15 -95 15 -76 0 -95 -3 -95 -14 0 -9 12 -16 32 -18
l32 -3 -77 -80 -76 -80 -1 83 c0 81 0 82 25 82 16 0 25 6 25 15 0 12 -17 15
-90 15 -72 0 -90 -3 -90 -14z"/>
<path d="M5540 3173 c-11 -32 -42 -111 -67 -175 -41 -105 -49 -118 -70 -118
-18 0 -24 -5 -21 -17 3 -15 16 -18 81 -21 72 -3 77 -1 77 18 0 16 -6 20 -31
20 -27 0 -30 3 -23 23 20 67 29 73 91 71 32 -1 65 -2 74 -3 9 0 21 -17 27 -40
16 -51 16 -51 -14 -51 -19 0 -25 -4 -22 -17 3 -15 15 -18 83 -18 68 0 80 3 83
18 3 12 -3 17 -20 17 -21 0 -30 18 -92 175 l-69 175 -33 0 c-31 0 -34 -3 -54
-57z m74 -67 c14 -41 26 -79 26 -85 0 -7 -22 -11 -55 -11 -30 0 -55 3 -55 7 0
11 51 163 55 163 1 0 14 -33 29 -74z"/>
<path d="M6365 3218 c-3 -7 -34 -85 -68 -173 -53 -135 -66 -160 -85 -163 -14
-2 -22 -10 -22 -23 0 -18 6 -20 77 -17 65 3 78 6 81 21 3 13 -3 17 -28 17 -30
0 -32 2 -25 28 3 15 13 37 20 49 14 21 34 23 136 14 10 0 24 -19 33 -41 20
-51 21 -50 -9 -50 -19 0 -25 -5 -25 -20 0 -19 5 -21 77 -18 63 2 78 6 81 20 2
11 -5 18 -19 20 -18 2 -33 31 -88 173 -66 168 -67 170 -99 173 -20 2 -34 -2
-37 -10z m58 -121 c15 -41 27 -77 27 -80 0 -4 -27 -7 -59 -7 l-59 0 26 80 c14
44 29 80 32 80 3 0 18 -33 33 -73z"/>
<path d="M6620 3216 c0 -9 12 -16 33 -18 l32 -3 0 -155 0 -155 -33 -3 c-25 -3
-32 -8 -30 -20 3 -15 17 -17 113 -14 97 2 117 6 165 30 44 21 60 36 78 72 54
107 6 226 -106 265 -62 21 -252 21 -252 1z m237 -42 c69 -28 98 -148 53 -222
-22 -36 -88 -71 -132 -72 l-28 0 0 160 0 161 38 -7 c20 -4 52 -12 69 -20z"/>
<path d="M7030 3215 c0 -10 10 -15 30 -15 l30 0 0 -160 0 -160 -31 0 c-24 0
-30 -4 -27 -17 3 -16 19 -18 173 -18 l170 0 3 73 c3 65 1 72 -16 72 -22 0 -32
-25 -32 -78 l0 -33 -87 3 -88 3 0 70 0 70 45 0 c43 0 45 -1 48 -32 2 -21 9
-33 18 -33 11 0 14 17 14 80 0 64 -3 80 -15 80 -10 0 -15 -10 -15 -30 0 -29
-1 -30 -50 -30 l-51 0 3 68 3 67 88 3 87 3 1 -28 c3 -84 4 -88 24 -88 18 0 20
8 23 73 l3 72 -176 0 c-149 0 -175 -2 -175 -15z"/>
<path d="M7410 3216 c0 -9 12 -16 33 -18 l32 -3 0 -155 0 -155 -28 -3 c-20 -3
-27 -8 -25 -20 5 -25 161 -25 166 0 2 12 -5 17 -30 20 l-33 3 -3 145 c-2 91 1
141 7 135 5 -6 31 -64 57 -130 52 -132 65 -154 81 -133 5 7 29 67 53 133 24
66 47 124 52 130 4 5 8 -57 8 -138 l0 -147 -31 0 c-24 0 -30 -4 -27 -17 3 -16
15 -18 88 -18 71 0 85 3 88 17 2 12 -5 17 -30 20 l-33 3 0 155 0 155 33 3 c20
2 32 8 29 15 -2 8 -30 12 -78 12 l-73 0 -40 -113 c-21 -62 -42 -110 -45 -107
-3 4 -24 55 -46 113 l-41 107 -82 3 c-67 2 -82 0 -82 -12z"/>
<path d="M7910 3215 c0 -9 9 -15 24 -15 28 0 44 -20 105 -132 37 -67 42 -83
39 -130 -3 -50 -5 -53 -30 -56 -20 -2 -28 -9 -28 -23 0 -18 6 -20 87 -17 74 3
88 6 91 21 3 13 -3 17 -27 17 l-31 0 0 59 c0 53 5 68 58 160 46 81 61 101 80
101 13 0 22 6 22 15 0 12 -15 15 -75 15 -60 0 -75 -3 -75 -15 0 -9 9 -15 25
-15 14 0 25 -2 25 -5 0 -8 -81 -155 -85 -155 -4 0 -85 147 -85 155 0 3 14 5
30 5 20 0 30 5 30 15 0 12 -17 15 -90 15 -73 0 -90 -3 -90 -15z"/>
</g>
</svg>
